<svg version="1.1" id="Layer_1" xmlns="http://www.w3.org/2000/svg" xmlns:xlink="http://www.w3.org/1999/xlink" x="0px" y="0px"
	 width="100%" viewBox="0 0 96 96" enable-background="new 0 0 96 96" xml:space="preserve">
<path fill="#000000" opacity="1.000000" stroke="none" 
	d="
M9.407098,59.155220 
	C7.191892,45.080238 10.556998,33.000870 19.758751,22.638704 
	C21.353006,20.843401 22.282341,18.860828 22.903540,16.530415 
	C24.241531,11.510959 26.312876,10.348110 31.220707,11.867571 
	C33.360600,12.530079 35.180260,11.989595 37.029552,11.335894 
	C46.496838,7.989334 55.917404,7.867944 65.350624,11.458573 
	C67.203224,12.163739 69.023232,12.762590 71.097588,11.733760 
	C75.453690,9.573236 77.966721,12.084092 78.909683,15.851943 
	C79.766518,19.275667 81.706703,21.711355 83.737091,24.374973 
	C94.193497,38.092484 96.821175,53.194183 89.332352,68.906731 
	C82.053299,84.179184 69.698593,93.040985 52.311241,93.334091 
	C30.652773,93.699181 15.066499,81.240158 9.407098,59.155220 
M44.416523,74.252190 
	C50.780880,75.388626 57.116760,75.046936 63.120522,72.771362 
	C76.600861,67.661942 83.671089,58.338600 78.233688,43.679695 
	C77.274673,41.094238 77.085716,38.668896 77.460136,35.915955 
	C78.294655,29.780003 78.092911,23.613686 76.293236,17.609861 
	C75.246788,14.118860 73.181755,13.478557 70.374138,15.812308 
	C69.361938,16.653666 68.327187,17.620144 67.703186,18.750580 
	C64.561447,24.442095 60.213055,27.273893 53.566170,25.187506 
	C53.260376,25.091518 52.891472,25.092937 52.573082,25.155855 
	C44.151703,26.819979 37.013546,25.409822 32.787876,16.953669 
	C32.717659,16.813152 32.558182,16.715487 32.435398,16.603251 
	C28.775337,13.257619 26.817862,13.732154 25.356112,18.408833 
	C23.733938,23.598766 23.724234,28.987398 24.429789,34.244663 
	C24.980129,38.345371 24.487753,41.984226 23.165770,45.862556 
	C20.049950,55.003498 23.233217,63.536118 31.238262,68.868546 
	C35.027210,71.392494 39.151077,73.097794 44.416523,74.252190 
M45.610458,87.424187 
	C45.381657,85.836693 45.152851,84.249199 44.911953,82.577766 
	C38.233044,81.153351 32.274395,78.413818 26.650988,74.831467 
	C24.628155,77.579453 24.023605,79.878723 26.670746,82.109146 
	C31.200285,85.925629 36.396919,88.429878 42.146851,89.701431 
	C43.486614,89.997719 45.692307,91.063187 45.610458,87.424187 
M64.022591,88.618607 
	C67.781952,87.247467 71.295425,85.391457 74.388351,82.864365 
	C75.591896,81.881004 77.251129,80.612267 75.933990,78.724777 
	C74.687744,76.938896 72.989243,76.286514 70.757484,77.407257 
	C68.108002,78.737770 65.421654,80.191086 62.578903,80.896210 
	C57.888695,82.059593 56.280682,84.955971 56.393494,89.430298 
	C58.924492,90.381287 61.109032,89.643860 64.022591,88.618607 
z"/>
<path fill="#000000" opacity="1.000000" stroke="none" 
	d="
M56.845467,51.027443 
	C57.043243,54.299549 54.233604,55.369583 52.925972,57.598560 
	C55.488266,61.120209 59.347221,59.139297 62.856667,59.844833 
	C62.095097,62.955875 59.560894,62.801865 57.809925,62.524628 
	C53.386761,61.824276 49.135582,61.144154 44.656857,62.603863 
	C42.877590,63.183765 40.441936,62.717556 38.789814,60.221809 
	C42.258331,58.763988 46.255749,61.288452 48.991062,57.695820 
	C48.240475,54.923615 41.915421,52.733044 46.708996,49.097404 
	C49.811371,46.744438 53.935028,46.722488 56.845467,51.027443 
z"/>
<path fill="#000000" opacity="1.000000" stroke="none" 
	d="
M41.751968,46.626347 
	C39.707878,47.762501 37.914860,48.069916 36.434868,46.485447 
	C35.434444,45.414394 35.565125,43.999073 36.152218,42.730095 
	C36.762814,41.410324 37.919899,40.581875 39.346519,40.779831 
	C42.916988,41.275265 43.821095,43.220448 41.751968,46.626347 
z"/>
<path fill="#000000" opacity="1.000000" stroke="none" 
	d="
M62.314178,47.528362 
	C59.596481,46.813709 58.603012,45.278416 59.291512,42.961876 
	C59.772896,41.342213 61.123222,40.647762 62.802010,40.786167 
	C64.705559,40.943100 65.903320,42.047215 66.151421,43.896812 
	C66.489845,46.419769 65.166710,47.599159 62.314178,47.528362 
z"/>
<path fill="#000000" opacity="1.000000" stroke="none" 
	d="
M72.944916,28.191977 
	C75.091156,24.695068 71.984589,21.527031 72.834473,17.971546 
	C76.494347,18.661257 75.905998,21.460850 76.279495,23.693012 
	C76.688560,26.137682 76.464684,28.480310 74.234169,29.904938 
	C72.872513,30.774632 72.610657,29.673868 72.944916,28.191977 
z"/>
</svg>